<svg xmlns="http://www.w3.org/2000/svg" viewBox="0 0 1200 340" role="img" aria-labelledby="t d">
<title id="t">Isometric stack of building modules</title><desc id="d">Existing modules in slate, approved modules in teal and proposed modules as dashed outlines.</desc>
<defs>
<linearGradient id="bg" x1="0" y1="0" x2="1" y2="1"><stop offset="0" stop-color="#060a13"/><stop offset="1" stop-color="#0b1424"/></linearGradient>
<radialGradient id="gt" cx=".5" cy=".5" r=".5"><stop offset="0" stop-color="#14b8a6" stop-opacity=".34"/><stop offset="1" stop-color="#14b8a6" stop-opacity="0"/></radialGradient>
<radialGradient id="gb" cx=".5" cy=".5" r=".5"><stop offset="0" stop-color="#3b82f6" stop-opacity=".28"/><stop offset="1" stop-color="#3b82f6" stop-opacity="0"/></radialGradient>
<pattern id="dots" width="24" height="24" patternUnits="userSpaceOnUse"><circle cx="1" cy="1" r=".9" fill="#7c93bd" fill-opacity=".2"/></pattern>
<filter id="glow" x="-50%" y="-50%" width="200%" height="200%"><feGaussianBlur stdDeviation="5" result="b"/><feMerge><feMergeNode in="b"/><feMergeNode in="SourceGraphic"/></feMerge></filter>
<clipPath id="card"><rect width="1200" height="340" rx="20"/></clipPath>
<linearGradient id="et" x1="0" y1="0" x2="1" y2="1"><stop offset="0" stop-color="#3a4a6b"/><stop offset="1" stop-color="#2a3752"/></linearGradient>
<linearGradient id="el" x1="0" y1="0" x2="0" y2="1"><stop offset="0" stop-color="#1e2a44"/><stop offset="1" stop-color="#121a2e"/></linearGradient>
<linearGradient id="er" x1="0" y1="0" x2="0" y2="1"><stop offset="0" stop-color="#16213a"/><stop offset="1" stop-color="#0c1324"/></linearGradient>
<linearGradient id="tt" x1="0" y1="0" x2="1" y2="1"><stop offset="0" stop-color="#99f6e4"/><stop offset="1" stop-color="#2dd4bf"/></linearGradient>
<linearGradient id="tl" x1="0" y1="0" x2="0" y2="1"><stop offset="0" stop-color="#14b8a6"/><stop offset="1" stop-color="#0f766e"/></linearGradient>
<linearGradient id="tr" x1="0" y1="0" x2="0" y2="1"><stop offset="0" stop-color="#0d9488"/><stop offset="1" stop-color="#0a4f4b"/></linearGradient>
</defs>
<style>text{font-family:-apple-system,BlinkMacSystemFont,"Segoe UI",Inter,Helvetica,Arial,sans-serif}.m{font-family:ui-monospace,SFMono-Regular,Menlo,Consolas,monospace}</style>
<g clip-path="url(#card)">
<rect width="1200" height="340" fill="url(#bg)"/><rect width="1200" height="340" fill="url(#dots)"/>
<ellipse cx="900" cy="120" rx="380" ry="230" fill="url(#gt)"/><ellipse cx="260" cy="330" rx="340" ry="190" fill="url(#gb)"/>
<rect x="48" y="40" width="30" height="3" rx="1.5" fill="#2dd4bf"/><text x="48" y="68" class="m" font-size="12" letter-spacing="2.4" fill="#8fa3c7">BIM  ·  AEC AUTOMATION</text><polygon points="800.0,212.0 938.6,292.0 800.0,372.0 661.4,292.0" fill="#0f1a30" fill-opacity=".55" stroke="#7c93bd" stroke-opacity=".35"/><line x1="782.7" y1="222.0" x2="921.2" y2="302.0" stroke="#7c93bd" stroke-opacity=".16"/><line x1="817.3" y1="222.0" x2="678.8" y2="302.0" stroke="#7c93bd" stroke-opacity=".16"/><line x1="748.0" y1="242.0" x2="886.6" y2="322.0" stroke="#7c93bd" stroke-opacity=".16"/><line x1="852.0" y1="242.0" x2="713.4" y2="322.0" stroke="#7c93bd" stroke-opacity=".16"/><line x1="713.4" y1="262.0" x2="852.0" y2="342.0" stroke="#7c93bd" stroke-opacity=".16"/><line x1="886.6" y1="262.0" x2="748.0" y2="342.0" stroke="#7c93bd" stroke-opacity=".16"/><line x1="678.8" y1="282.0" x2="817.3" y2="362.0" stroke="#7c93bd" stroke-opacity=".16"/><line x1="921.2" y1="282.0" x2="782.7" y2="362.0" stroke="#7c93bd" stroke-opacity=".16"/><polygon points="768.8,214.0 800.0,232.0 800.0,268.0 768.8,250.0" fill="url(#el)" stroke="#9fb3d1" stroke-opacity=".16" stroke-width=".8"/><polygon points="831.2,214.0 800.0,232.0 800.0,268.0 831.2,250.0" fill="url(#er)" stroke="#9fb3d1" stroke-opacity=".12" stroke-width=".8"/><polygon points="800.0,196.0 831.2,214.0 800.0,232.0 768.8,214.0" fill="url(#et)" stroke="#cfe0ff" stroke-opacity=".28" stroke-width=".8"/><polygon points="768.8,174.0 800.0,192.0 800.0,228.0 768.8,210.0" fill="url(#el)" stroke="#9fb3d1" stroke-opacity=".16" stroke-width=".8"/><polygon points="831.2,174.0 800.0,192.0 800.0,228.0 831.2,210.0" fill="url(#er)" stroke="#9fb3d1" stroke-opacity=".12" stroke-width=".8"/><polygon points="800.0,156.0 831.2,174.0 800.0,192.0 768.8,174.0" fill="url(#et)" stroke="#cfe0ff" stroke-opacity=".28" stroke-width=".8"/><polygon points="768.8,134.0 800.0,152.0 800.0,188.0 768.8,170.0" fill="url(#el)" stroke="#9fb3d1" stroke-opacity=".16" stroke-width=".8"/><polygon points="831.2,134.0 800.0,152.0 800.0,188.0 831.2,170.0" fill="url(#er)" stroke="#9fb3d1" stroke-opacity=".12" stroke-width=".8"/><polygon points="800.0,116.0 831.2,134.0 800.0,152.0 768.8,134.0" fill="url(#et)" stroke="#cfe0ff" stroke-opacity=".28" stroke-width=".8"/><polygon points="803.5,234.0 834.6,252.0 834.6,288.0 803.5,270.0" fill="url(#el)" stroke="#9fb3d1" stroke-opacity=".16" stroke-width=".8"/><polygon points="865.8,234.0 834.6,252.0 834.6,288.0 865.8,270.0" fill="url(#er)" stroke="#9fb3d1" stroke-opacity=".12" stroke-width=".8"/><polygon points="834.6,216.0 865.8,234.0 834.6,252.0 803.5,234.0" fill="url(#et)" stroke="#cfe0ff" stroke-opacity=".28" stroke-width=".8"/><polygon points="734.2,234.0 765.4,252.0 765.4,288.0 734.2,270.0" fill="url(#el)" stroke="#9fb3d1" stroke-opacity=".16" stroke-width=".8"/><polygon points="796.5,234.0 765.4,252.0 765.4,288.0 796.5,270.0" fill="url(#er)" stroke="#9fb3d1" stroke-opacity=".12" stroke-width=".8"/><polygon points="765.4,216.0 796.5,234.0 765.4,252.0 734.2,234.0" fill="url(#et)" stroke="#cfe0ff" stroke-opacity=".28" stroke-width=".8"/><polygon points="803.5,194.0 834.6,212.0 834.6,248.0 803.5,230.0" fill="url(#el)" stroke="#9fb3d1" stroke-opacity=".16" stroke-width=".8"/><polygon points="865.8,194.0 834.6,212.0 834.6,248.0 865.8,230.0" fill="url(#er)" stroke="#9fb3d1" stroke-opacity=".12" stroke-width=".8"/><polygon points="834.6,176.0 865.8,194.0 834.6,212.0 803.5,194.0" fill="url(#et)" stroke="#cfe0ff" stroke-opacity=".28" stroke-width=".8"/><polygon points="734.2,194.0 765.4,212.0 765.4,248.0 734.2,230.0" fill="url(#el)" stroke="#9fb3d1" stroke-opacity=".16" stroke-width=".8"/><polygon points="796.5,194.0 765.4,212.0 765.4,248.0 796.5,230.0" fill="url(#er)" stroke="#9fb3d1" stroke-opacity=".12" stroke-width=".8"/><polygon points="765.4,176.0 796.5,194.0 765.4,212.0 734.2,194.0" fill="url(#et)" stroke="#cfe0ff" stroke-opacity=".28" stroke-width=".8"/><polygon points="803.5,154.0 834.6,172.0 834.6,208.0 803.5,190.0" fill="url(#el)" stroke="#9fb3d1" stroke-opacity=".16" stroke-width=".8"/><polygon points="865.8,154.0 834.6,172.0 834.6,208.0 865.8,190.0" fill="url(#er)" stroke="#9fb3d1" stroke-opacity=".12" stroke-width=".8"/><polygon points="834.6,136.0 865.8,154.0 834.6,172.0 803.5,154.0" fill="url(#et)" stroke="#cfe0ff" stroke-opacity=".28" stroke-width=".8"/><polygon points="734.2,154.0 765.4,172.0 765.4,208.0 734.2,190.0" fill="url(#el)" stroke="#9fb3d1" stroke-opacity=".16" stroke-width=".8"/><polygon points="796.5,154.0 765.4,172.0 765.4,208.0 796.5,190.0" fill="url(#er)" stroke="#9fb3d1" stroke-opacity=".12" stroke-width=".8"/><polygon points="765.4,136.0 796.5,154.0 765.4,172.0 734.2,154.0" fill="url(#et)" stroke="#cfe0ff" stroke-opacity=".28" stroke-width=".8"/><polygon points="838.1,254.0 869.3,272.0 869.3,308.0 838.1,290.0" fill="url(#el)" stroke="#9fb3d1" stroke-opacity=".16" stroke-width=".8"/><polygon points="900.5,254.0 869.3,272.0 869.3,308.0 900.5,290.0" fill="url(#er)" stroke="#9fb3d1" stroke-opacity=".12" stroke-width=".8"/><polygon points="869.3,236.0 900.5,254.0 869.3,272.0 838.1,254.0" fill="url(#et)" stroke="#cfe0ff" stroke-opacity=".28" stroke-width=".8"/><polygon points="768.8,254.0 800.0,272.0 800.0,308.0 768.8,290.0" fill="url(#el)" stroke="#9fb3d1" stroke-opacity=".16" stroke-width=".8"/><polygon points="831.2,254.0 800.0,272.0 800.0,308.0 831.2,290.0" fill="url(#er)" stroke="#9fb3d1" stroke-opacity=".12" stroke-width=".8"/><polygon points="800.0,236.0 831.2,254.0 800.0,272.0 768.8,254.0" fill="url(#et)" stroke="#cfe0ff" stroke-opacity=".28" stroke-width=".8"/><polygon points="699.5,254.0 730.7,272.0 730.7,308.0 699.5,290.0" fill="url(#el)" stroke="#9fb3d1" stroke-opacity=".16" stroke-width=".8"/><polygon points="761.9,254.0 730.7,272.0 730.7,308.0 761.9,290.0" fill="url(#er)" stroke="#9fb3d1" stroke-opacity=".12" stroke-width=".8"/><polygon points="730.7,236.0 761.9,254.0 730.7,272.0 699.5,254.0" fill="url(#et)" stroke="#cfe0ff" stroke-opacity=".28" stroke-width=".8"/><polygon points="838.1,214.0 869.3,232.0 869.3,268.0 838.1,250.0" fill="url(#tl)"/><polygon points="900.5,214.0 869.3,232.0 869.3,268.0 900.5,250.0" fill="url(#tr)"/><polygon points="869.3,196.0 900.5,214.0 869.3,232.0 838.1,214.0" fill="url(#tt)"/><polygon points="768.8,214.0 800.0,232.0 800.0,268.0 768.8,250.0" fill="url(#tl)"/><polygon points="831.2,214.0 800.0,232.0 800.0,268.0 831.2,250.0" fill="url(#tr)"/><polygon points="800.0,196.0 831.2,214.0 800.0,232.0 768.8,214.0" fill="url(#tt)"/><polygon points="699.5,214.0 730.7,232.0 730.7,268.0 699.5,250.0" fill="url(#el)" stroke="#9fb3d1" stroke-opacity=".16" stroke-width=".8"/><polygon points="761.9,214.0 730.7,232.0 730.7,268.0 761.9,250.0" fill="url(#er)" stroke="#9fb3d1" stroke-opacity=".12" stroke-width=".8"/><polygon points="730.7,196.0 761.9,214.0 730.7,232.0 699.5,214.0" fill="url(#et)" stroke="#cfe0ff" stroke-opacity=".28" stroke-width=".8"/><polygon points="803.5,274.0 834.6,292.0 834.6,328.0 803.5,310.0" fill="url(#el)" stroke="#9fb3d1" stroke-opacity=".16" stroke-width=".8"/><polygon points="865.8,274.0 834.6,292.0 834.6,328.0 865.8,310.0" fill="url(#er)" stroke="#9fb3d1" stroke-opacity=".12" stroke-width=".8"/><polygon points="834.6,256.0 865.8,274.0 834.6,292.0 803.5,274.0" fill="url(#et)" stroke="#cfe0ff" stroke-opacity=".28" stroke-width=".8"/><polygon points="734.2,274.0 765.4,292.0 765.4,328.0 734.2,310.0" fill="url(#tl)"/><polygon points="796.5,274.0 765.4,292.0 765.4,328.0 796.5,310.0" fill="url(#tr)"/><polygon points="765.4,256.0 796.5,274.0 765.4,292.0 734.2,274.0" fill="url(#tt)"/><polygon points="768.8,294.0 800.0,312.0 800.0,348.0 768.8,330.0" fill="url(#el)" stroke="#9fb3d1" stroke-opacity=".16" stroke-width=".8"/><polygon points="831.2,294.0 800.0,312.0 800.0,348.0 831.2,330.0" fill="url(#er)" stroke="#9fb3d1" stroke-opacity=".12" stroke-width=".8"/><polygon points="800.0,276.0 831.2,294.0 800.0,312.0 768.8,294.0" fill="url(#et)" stroke="#cfe0ff" stroke-opacity=".28" stroke-width=".8"/><line x1="800.0" y1="96.0" x2="800.0" y2="130.0" stroke="#2dd4bf" stroke-opacity=".5" stroke-dasharray="2 4"/><polygon points="768.8,58.0 800.0,76.0 800.0,112.0 768.8,94.0" fill="#2dd4bf" fill-opacity="0.07" stroke="#5eead4" stroke-width="1.1" stroke-dasharray="4 3"/><polygon points="831.2,58.0 800.0,76.0 800.0,112.0 831.2,94.0" fill="#2dd4bf" fill-opacity="0.04" stroke="#5eead4" stroke-width="1.1" stroke-dasharray="4 3"/><polygon points="800.0,40.0 831.2,58.0 800.0,76.0 768.8,58.0" fill="#2dd4bf" fill-opacity="0.16" stroke="#5eead4" stroke-width="1.1" stroke-dasharray="4 3"/><line x1="834.6" y1="116.0" x2="834.6" y2="150.0" stroke="#2dd4bf" stroke-opacity=".5" stroke-dasharray="2 4"/><polygon points="803.5,78.0 834.6,96.0 834.6,132.0 803.5,114.0" fill="#2dd4bf" fill-opacity="0.07" stroke="#5eead4" stroke-width="1.1" stroke-dasharray="4 3"/><polygon points="865.8,78.0 834.6,96.0 834.6,132.0 865.8,114.0" fill="#2dd4bf" fill-opacity="0.04" stroke="#5eead4" stroke-width="1.1" stroke-dasharray="4 3"/><polygon points="834.6,60.0 865.8,78.0 834.6,96.0 803.5,78.0" fill="#2dd4bf" fill-opacity="0.16" stroke="#5eead4" stroke-width="1.1" stroke-dasharray="4 3"/><g font-size="34" font-weight="800" fill="#e8eefc" letter-spacing="-.6"><text x="48" y="150">Repeatable</text><text x="48" y="192">construction.</text></g><text x="48" y="226" font-size="15" fill="#8fa3c7">Modules in, reviewed changes out.</text><polyline points="869.3,76.0 905.3,76.0 1080,76.0" fill="none" stroke="#2dd4bf" stroke-opacity=".55"/><circle cx="869.3" cy="76.0" r="2.5" fill="#2dd4bf"/><text x="1088" y="80.0" class="m" font-size="10.5" letter-spacing="1.6" fill="#2dd4bf">PROPOSED</text><polyline points="886.6,222.0 922.6,222.0 1080,222.0" fill="none" stroke="#2dd4bf" stroke-opacity=".55"/><circle cx="886.6" cy="222.0" r="2.5" fill="#2dd4bf"/><text x="1088" y="226.0" class="m" font-size="10.5" letter-spacing="1.6" fill="#2dd4bf">APPROVED</text><polyline points="817.3,322.0 853.3,322.0 1080,322.0" fill="none" stroke="#8fa3c7" stroke-opacity=".55"/><circle cx="817.3" cy="322.0" r="2.5" fill="#8fa3c7"/><text x="1088" y="326.0" class="m" font-size="10.5" letter-spacing="1.6" fill="#8fa3c7">MODEL</text>
</g>
<rect x=".5" y=".5" width="1199" height="339" rx="20" fill="none" stroke="#fff" stroke-opacity=".1"/>
</svg>